# xmcd CD database file
#
# Track frame offsets:
#	150
#	20720
#	32524
#	45012
#	58049
#	67426
#	78753
#	92713
#	105816
#	131276
#
# Disc length: 2036 seconds
#
# Revision: 0
# Processed by: cddbd v1.5.2PL0 Copyright (c) Steve Scherf et al.
# Submitted via: CDex 1.70beta2
#
DISCID=7107f20a
DTITLE=Various Artist - Country Crossroads *Texas When I Die*
DYEAR=2005
DGENRE=Country
TTITLE0=The Road Goes On Forever - Joe Ely
TTITLE1=Waltz Across Texas - Ernest Tubb
TTITLE2=San Antonio Rose - Bob Willis
TTITLE3=Wasted Days - Freddie Fender
TTITLE4=Drinkin' My Way Back Home - Gene Watson
TTITLE5=Holdin' Heaven - Tracy Byrd
TTITLE6=Bubba Shot The Jukebox - Mark Chestnut
TTITLE7=Across The Alley - Asleep At The Wheel
TTITLE8=Mr Bojangles - Jerry Jeff Walker
TTITLE9=Texas (When I Die) - Tanya Tucker
EXTD=YEAR: 2005
EXTT0=
EXTT1=
EXTT2=
EXTT3=
EXTT4=
EXTT5=
EXTT6=
EXTT7=
EXTT8=
EXTT9=
PLAYORDER=
